<svg xmlns="http://www.w3.org/2000/svg" id="blog" viewBox="0 0 64.4 60.85">
  <g id="ICONS">
    <path d="M57.47 9.25v41.89a2.75 2.75 0 0 1-2.76 2.75H3.26A2.75 2.75 0 0 1 .5 51.14V9.25z" fill="#64daf9"></path>
    <path d="M57.47 9.25v41.89a2.75 2.75 0 0 1-2.76 2.75H3.26A2.75 2.75 0 0 1 .5 51.14V9.25z" fill="none" stroke-linecap="round" stroke-linejoin="round" stroke="#000"></path>
    <rect width="49.29" height="36.97" x="4.34" y="13.09" rx="2.88" ry="2.88" fill="#fff"></rect>
    <rect width="49.29" height="36.97" x="4.34" y="13.09" rx="2.88" ry="2.88" fill="none" stroke-linecap="round" stroke-linejoin="round" stroke="#231f20"></rect>
    <path d="M57.47 3.26v5.99H.5V3.26C.5 1.74 1.74.5 3.26.5H54.7a2.76 2.76 0 0 1 2.76 2.76Z" fill="#5097ff"></path>
    <path d="M57.47 3.26v5.99H.5V3.26C.5 1.74 1.74.5 3.26.5H54.7a2.76 2.76 0 0 1 2.76 2.76Z" fill="none" stroke-linecap="round" stroke-linejoin="round" stroke="#000"></path>
    <path d="M7.65 5.72c0 .72-.58 1.3-1.3 1.3s-1.29-.58-1.29-1.3.58-1.3 1.29-1.3 1.3.58 1.3 1.3M11.59 5.72c0 .72-.58 1.3-1.3 1.3S9 6.44 9 5.72s.58-1.3 1.29-1.3 1.3.58 1.3 1.3M15.53 5.72c0 .72-.58 1.3-1.3 1.3s-1.29-.58-1.29-1.3.58-1.3 1.29-1.3 1.3.58 1.3 1.3" stroke-linecap="round" stroke-linejoin="round" stroke="#231f20" fill="#fff"></path>
    <rect width="18.32" height="13.34" x="7.63" y="33.66" rx="1.29" ry="1.29" fill="#ffb807"></rect>
    <rect width="18.32" height="13.34" x="7.63" y="33.66" rx="1.29" ry="1.29" fill="none" stroke-linecap="round" stroke-linejoin="round" stroke="#000"></rect>
    <path d="M13.83 37.59v5.47c0 .73.85 1.16 1.49.76l4.32-2.74a.88.88 0 0 0 0-1.51l-4.32-2.74c-.64-.4-1.49.03-1.49.76" stroke-linecap="round" stroke-linejoin="round" stroke="#000" fill="#fe4e3e"></path>
    <path d="M63.9 32.86v24.4c0 1.71-1.39 3.09-3.09 3.09H32.08c-.84 0-1.6-.33-2.15-.87-.34-.32-.6-.72-.76-1.17-.12-.33-.19-.68-.19-1.05v-24.4c0-1.71 1.39-3.09 3.09-3.09H60.8c1.71 0 3.09 1.39 3.09 3.09Z" fill="#fff"></path>
    <path d="M63.9 32.86v24.4c0 1.71-1.39 3.09-3.09 3.09H32.08c-.84 0-1.6-.33-2.15-.87-.34-.32-.6-.72-.76-1.17-.12-.33-.19-.68-.19-1.05v-24.4c0-1.71 1.39-3.09 3.09-3.09H60.8c1.71 0 3.09 1.39 3.09 3.09Z" fill="none" stroke-linecap="round" stroke-linejoin="round" stroke="#231f20"></path>
    <path d="M63.9 54.26v3c0 1.71-1.39 3.09-3.09 3.09H43.16l4.67-6.03.83-1.07 5.74-7.41c.88-1.14 2.73-1.1 3.56.06l5.94 8.35Z" fill="#05bb70"></path>
    <path d="M63.9 54.26v3c0 1.71-1.39 3.09-3.09 3.09H43.16l4.67-6.03.83-1.07 5.74-7.41c.88-1.14 2.73-1.1 3.56.06l5.94 8.35Z" fill="none" stroke-linecap="round" stroke-linejoin="round" stroke="#000"></path>
    <path d="M53.99 60.35H32.08c-.84 0-1.6-.33-2.15-.87-.34-.32-.6-.72-.76-1.17l10.2-12.47c.93-1.14 2.89-1.1 3.77.06l5.52 7.35.8 1.07z" fill="#05bb70"></path>
    <path d="M53.99 60.35H32.08c-.84 0-1.6-.33-2.15-.87-.34-.32-.6-.72-.76-1.17l10.2-12.47c.93-1.14 2.89-1.1 3.77.06l5.52 7.35.8 1.07z" fill="none" stroke-linecap="round" stroke-linejoin="round" stroke="#000"></path>
    <path d="M51.93 39.92c0 1.97-1.59 3.56-3.55 3.56s-3.55-1.59-3.55-3.56 1.59-3.55 3.55-3.55 3.55 1.59 3.55 3.55" fill="#ffb807"></path>
    <path d="M51.93 39.92c0 1.97-1.59 3.56-3.55 3.56s-3.55-1.59-3.55-3.56 1.59-3.55 3.55-3.55 3.55 1.59 3.55 3.55" fill="none" stroke-linecap="round" stroke-linejoin="round" stroke="#000"></path>
    <path d="M21.58 22.71c0 .27-.04.51-.11.73s-.18.41-.31.58-.29.31-.47.43-.38.22-.6.3-.45.14-.7.17-.52.06-.83.06h-2.02c-.13 0-.24-.04-.33-.11s-.13-.2-.13-.37v-6.61c0-.17.04-.3.13-.37s.2-.11.33-.11h1.9c.46 0 .86.04 1.18.12s.59.2.81.35.39.36.51.6.18.53.18.86a1.625 1.625 0 0 1-.28.96c-.09.13-.2.25-.33.35s-.28.18-.45.25c.21.04.41.11.59.21s.34.22.47.38.24.33.32.54.12.44.12.7Zm-1.99-3.19c0-.15-.02-.29-.07-.41s-.12-.22-.21-.3-.21-.14-.35-.18-.33-.06-.57-.06h-.78v1.97h.86c.22 0 .4-.03.53-.08s.24-.12.33-.22.15-.2.2-.32.06-.25.06-.39Zm.39 3.25c0-.18-.03-.33-.09-.47s-.14-.25-.26-.35-.26-.17-.43-.22-.4-.08-.69-.08h-.91v2.16h1.11c.21 0 .4-.02.54-.07s.27-.11.38-.2.19-.2.25-.33.09-.28.09-.45ZM26.98 24.33c0 .12 0 .22-.01.3s-.02.15-.04.2-.04.09-.07.11-.06.04-.1.04h-3.47c-.13 0-.24-.04-.33-.11s-.13-.2-.13-.37v-6.88s.01-.07.04-.11.07-.06.13-.08.14-.04.24-.05.22-.02.37-.02.28 0 .38.02.18.03.23.05.1.04.13.08.04.07.04.11v6.1h2.38s.07.01.1.03.05.06.07.11.03.11.04.19.01.18.01.3ZM34.5 21.1c0 .63-.08 1.19-.23 1.69s-.39.92-.7 1.26-.69.61-1.15.79-.98.27-1.58.27-1.1-.08-1.54-.23-.81-.39-1.1-.71-.51-.72-.66-1.21-.22-1.07-.22-1.73c0-.61.08-1.17.23-1.66s.39-.91.7-1.25.69-.61 1.15-.79.98-.28 1.58-.28 1.08.08 1.52.23.81.39 1.1.7.52.72.67 1.2.23 1.05.23 1.71Zm-1.62.08c0-.4-.03-.76-.09-1.09s-.17-.61-.32-.84-.35-.41-.6-.54-.56-.19-.94-.19-.7.07-.95.21-.46.33-.62.57-.27.52-.33.83-.1.66-.1 1.01c0 .41.03.79.09 1.12s.17.61.32.85.35.41.6.54.56.18.94.18.7-.07.95-.21.46-.33.62-.57.27-.52.33-.85.1-.67.1-1.03ZM41.88 18.57c0 .11 0 .21-.01.29s-.02.15-.04.2-.04.08-.06.1-.06.03-.09.03c-.05 0-.13-.04-.25-.11s-.26-.15-.45-.23-.41-.16-.67-.23-.56-.11-.91-.11c-.37 0-.7.06-1 .19s-.55.31-.76.54-.37.51-.49.84-.17.69-.17 1.08c0 .43.06.82.17 1.15s.28.61.48.83.46.39.75.5.61.17.96.17q.255 0 .51-.06c.255-.06.32-.1.47-.18v-1.76h-1.44c-.07 0-.12-.04-.16-.13s-.06-.24-.06-.45c0-.11 0-.2.01-.28s.02-.13.04-.18.04-.08.07-.1.06-.03.09-.03h2.56c.06 0 .12.01.17.03s.09.05.13.1.07.09.08.16.03.13.03.21v3.02c0 .12-.02.22-.06.31s-.12.16-.25.21-.28.1-.47.16-.38.1-.58.14-.4.07-.61.09-.41.03-.62.03c-.61 0-1.15-.09-1.63-.26s-.88-.43-1.22-.76-.59-.73-.76-1.21-.26-1.01-.26-1.61.09-1.18.28-1.67.45-.91.8-1.26.76-.61 1.25-.79 1.03-.28 1.63-.28c.33 0 .63.02.9.07s.5.1.71.16.37.13.5.21.23.14.28.19.09.13.11.23.04.25.04.44Z" fill="#231f20"></path>
  </g>
</svg>
